<svg width="25" height="25" viewBox="0 0 25 25" fill="none" xmlns="http://www.w3.org/2000/svg">
<path fill-rule="evenodd" clip-rule="evenodd" d="M12.2856 18.2843H13.4811C13.4811 18.2843 13.8422 18.2438 14.0265 18.0406C14.1962 17.854 14.1908 17.5036 14.1908 17.5036C14.1908 17.5036 14.1674 15.8634 14.9119 15.6219C15.6458 15.3839 16.5883 17.2071 17.5872 17.9081C18.3425 18.4387 18.9165 18.3224 18.9165 18.3224L21.5874 18.2843C21.5874 18.2843 22.9846 18.1963 22.3221 17.073C22.2678 16.9811 21.9363 16.2421 20.3362 14.7235C18.6615 13.134 18.8858 13.3911 20.9032 10.6418C22.1318 8.96737 22.6229 7.94514 22.4695 7.50732C22.3232 7.09032 21.4196 7.20054 21.4196 7.20054L18.4123 7.21969C18.4123 7.21969 18.1894 7.1886 18.024 7.28966C17.8625 7.38877 17.7585 7.61976 17.7585 7.61976C17.7585 7.61976 17.2825 8.91545 16.6477 10.0174C15.3086 12.3425 14.7732 12.4652 14.5543 12.3209C14.0453 11.9844 14.1723 10.9691 14.1723 10.2478C14.1723 7.99456 14.5066 7.05506 13.5215 6.81186C13.1946 6.73107 12.954 6.67776 12.1181 6.66916C11.045 6.65777 10.1368 6.67249 9.62257 6.93013C9.28047 7.10142 9.01655 7.48316 9.17729 7.5051C9.37604 7.5323 9.82621 7.6292 10.0649 7.96152C10.373 8.39018 10.3622 9.353 10.3622 9.353C10.3622 9.353 10.5392 12.0055 9.94866 12.335C9.54329 12.561 8.98723 12.0996 7.79338 9.99015C7.18166 8.90962 6.71982 7.71526 6.71982 7.71526C6.71982 7.71526 6.63076 7.49205 6.47193 7.37267C6.27915 7.22802 6.00981 7.18194 6.00981 7.18194L3.15213 7.20109C3.15213 7.20109 2.72313 7.21331 2.56566 7.40404C2.42556 7.57367 2.55452 7.92459 2.55452 7.92459C2.55452 7.92459 4.7918 13.2767 7.32502 15.9739C9.64782 18.4467 12.2856 18.2843 12.2856 18.2843Z" fill="#704770"/>
</svg>
